<svg width="140" height="52" viewBox="0 0 140 52" fill="none" xmlns="http://www.w3.org/2000/svg">
<g clip-path="url(#clip0_1133_318)">
<path d="M60.2815 11.0769C60.2815 10.0724 60.6298 9.24678 61.3263 8.58629C62.0228 7.92579 62.8586 7.58179 63.8616 7.58179C64.8646 7.58179 65.7143 7.91203 66.4248 8.58629C67.1352 9.26054 67.4835 10.0862 67.4835 11.0769C67.4835 12.0539 67.1352 12.8657 66.4248 13.5262C65.7143 14.1867 64.8646 14.5307 63.8616 14.5307C62.8586 14.5307 62.0228 14.2005 61.3263 13.5262C60.6298 12.8657 60.2815 12.0401 60.2815 11.0769ZM61.0755 38.9689V18.7551C61.0755 18.645 61.1591 18.5625 61.2705 18.5625H66.4944C66.6059 18.5625 66.6895 18.645 66.6895 18.7551V38.9689C66.6895 39.079 66.6059 39.1616 66.4944 39.1616H61.2705C61.1591 39.1616 61.0755 39.0653 61.0755 38.9689Z" fill="#F8FCFC"/>
<path d="M72.2615 38.969V8.03593C72.2615 7.99465 72.3033 7.95337 72.3451 7.95337H77.7918C77.8336 7.95337 77.8754 7.99465 77.8754 8.03593V38.969C77.8754 39.0791 77.7918 39.1616 77.6804 39.1616H72.4565C72.3451 39.1616 72.2615 39.0653 72.2615 38.969Z" fill="#F8FCFC"/>
<path d="M82.2912 28.8413C82.2354 25.8966 83.3081 23.3647 85.4951 21.2319C87.6822 19.099 90.2872 18.0532 93.3101 18.1083C96.3329 18.0532 98.9519 19.099 101.153 21.2319C103.354 23.3647 104.426 25.9103 104.371 28.8413C104.426 31.786 103.34 34.3316 101.125 36.4782C98.9101 38.6248 96.2912 39.6706 93.2683 39.6156C90.2454 39.6706 87.6404 38.6248 85.4673 36.4782C83.2941 34.3179 82.2354 31.7722 82.2912 28.8413ZM85.9827 13.3197C85.314 12.6867 84.9797 11.9162 84.9797 11.0355C84.9797 10.1548 85.314 9.38428 85.9827 8.7513C86.6514 8.11833 87.4454 7.78809 88.3927 7.78809C89.2842 7.78809 90.0504 8.10457 90.719 8.7513C91.3877 9.38428 91.722 10.1548 91.722 11.0355C91.722 11.9299 91.3877 12.6867 90.719 13.3197C90.0504 13.9527 89.2703 14.2829 88.3927 14.2829C87.4593 14.2692 86.6514 13.9527 85.9827 13.3197ZM97.113 32.873C98.13 31.8135 98.6315 30.4925 98.6315 28.8826C98.6315 27.2726 98.13 25.9241 97.113 24.8508C96.0961 23.7637 94.8285 23.2271 93.3101 23.2271C91.7638 23.2271 90.4822 23.7637 89.4792 24.8233C88.4762 25.8966 87.9887 27.2451 87.9887 28.8826C87.9887 30.4925 88.4902 31.8272 89.4792 32.873C90.4822 33.9326 91.7499 34.4555 93.3101 34.4555C94.8285 34.4555 96.0961 33.9326 97.113 32.873ZM95.8872 13.3197C95.2185 12.6867 94.8842 11.9162 94.8842 11.0355C94.8842 10.1548 95.2185 9.38428 95.8872 8.7513C96.5558 8.11833 97.3499 7.78809 98.2971 7.78809C99.1887 7.78809 99.9548 8.10457 100.623 8.7513C101.292 9.38428 101.626 10.1548 101.626 11.0355C101.626 11.9299 101.292 12.6867 100.623 13.3197C99.9548 13.9527 99.1747 14.2829 98.2971 14.2829C97.3499 14.2692 96.5558 13.9527 95.8872 13.3197Z" fill="#F8FCFC"/>
<path d="M134.488 18.5625H139.963C140.102 18.5625 140.2 18.7001 140.144 18.8377L130.755 39.5469C130.727 39.6157 130.657 39.657 130.574 39.657H128.986C128.916 39.657 128.846 39.6157 128.805 39.5469L123.023 27.8094C122.996 27.7543 122.912 27.7543 122.884 27.8094L117.061 39.5469C117.033 39.6157 116.964 39.657 116.88 39.657H115.292C115.222 39.657 115.153 39.6157 115.111 39.5469L105.722 18.8377C105.666 18.7138 105.764 18.5625 105.903 18.5625H111.378C111.461 18.5625 111.531 18.6038 111.559 18.6863L116.309 30.1349C116.337 30.1899 116.421 30.2037 116.448 30.1349L121.937 18.2185C121.965 18.1497 122.034 18.1084 122.118 18.1084H123.748C123.818 18.1084 123.887 18.1497 123.929 18.2185L129.501 29.9009C129.529 29.956 129.613 29.956 129.64 29.9009L134.307 18.7001C134.335 18.6038 134.405 18.5625 134.488 18.5625Z" fill="#F8FCFC"/>
<path d="M23.6796 8.95431C25.3962 8.95431 27.1712 9.42961 28.5491 10.2527C30.1372 11.2033 30.8379 12.2582 31.7254 13.603C32.718 15.0984 33.9558 16.9764 36.3146 18.2284C38.3349 19.3065 40.2149 19.4688 41.7213 19.5964C43.3679 19.7355 44.2787 19.8166 45.7034 20.9643C47.3616 22.2975 47.9338 23.9552 48.1323 25.1029C48.4009 26.7374 48.0622 28.117 47.6418 28.8589C46.3923 31.0847 44.8626 32.186 42.5271 32.5338C42.2235 32.5801 41.9198 32.6033 41.6162 32.6033C41.1608 32.6033 40.7171 32.5569 40.2149 32.499C39.6544 32.4294 39.0122 32.3599 38.3115 32.3599C36.4898 32.3599 34.8783 32.87 33.3836 33.9017C30.8846 35.6406 30.3358 38.2142 30.0088 39.7444C29.7519 40.9384 29.6234 41.4949 29.0279 42.1209C27.9068 43.3033 26.3771 43.4309 25.7699 43.4309C25.2444 43.4309 24.7306 43.3497 24.3452 43.199C21.8112 42.1789 21.5543 39.9994 21.6243 38.7822C21.6711 38.1214 21.7645 37.9012 22.0681 37.252C22.4885 36.3477 23.1307 34.9798 23.2592 32.9047C23.5044 28.8473 20.7252 26.4708 18.8918 24.9058C18.0861 24.2218 17.3387 23.5726 16.7899 22.8539C15.7856 21.5207 15.1667 19.7239 15.0733 17.9386C15.0149 16.5823 15.2251 14.5652 16.6497 12.6524C18.4948 10.1947 20.8536 8.95431 23.6796 8.95431ZM23.6796 4.28247C19.9545 4.28247 15.9374 5.76633 12.8896 9.87013C9.10607 14.9709 10.0052 21.5787 13.0414 25.6361C15.2951 28.6386 18.7517 29.8095 18.5882 32.6149C18.4364 35.1073 17.1402 35.5247 16.9533 38.4808C16.7081 42.3296 18.6349 45.9349 22.6053 47.5231C23.5278 47.894 24.6255 48.1027 25.7815 48.1027C28.0587 48.1027 30.581 47.3028 32.4611 45.3321C35.3454 42.3064 34.0025 39.1879 36.0928 37.7389C36.8752 37.194 37.5758 37.0433 38.3115 37.0433C39.2574 37.0433 40.2733 37.2983 41.6162 37.2983C42.1067 37.2983 42.6439 37.2636 43.2277 37.1708C47.6885 36.4985 50.1875 33.9017 51.7406 31.1426C53.7608 27.5373 53.4806 21.2193 48.6578 17.3358C44.4305 13.9391 41.4644 15.678 38.5334 14.113C35.6374 12.5712 35.5439 8.97749 30.9664 6.25322C29.0396 5.09396 26.4355 4.28247 23.6796 4.28247Z" fill="#F8FCFC"/>
</g>
<defs>
<clipPath id="clip0_1133_318">
<rect width="140" height="52" fill="white"/>
</clipPath>
</defs>
</svg>